<svg width="53" height="53" viewBox="0 0 53 53" fill="none" xmlns="http://www.w3.org/2000/svg">
<path d="M36.814 18.6211L39.3442 20.7949L39.7856 21.1738L39.3442 21.5537L23.2495 35.3789L22.9233 35.6592L22.5972 35.3789L13.6558 27.6953L13.2144 27.3164L13.6558 26.9375L16.1831 24.7666L16.5083 24.4863L16.8345 24.7666L22.9224 29.9951L36.1616 18.6211L36.4878 18.3408L36.814 18.6211Z" fill="#D69B64" stroke="#D69B64"/>
<path d="M26.5 0.5C33.3956 0.5 40.0088 3.23929 44.8848 8.11523C49.7607 12.9912 52.5 19.6044 52.5 26.5C52.5 31.6422 50.9749 36.6687 48.1182 40.9443C45.2613 45.2199 41.2009 48.5526 36.4502 50.5205C31.6993 52.4884 26.4712 53.0032 21.4277 52C16.3842 50.9968 11.7514 48.5209 8.11523 44.8848C4.47907 41.2486 2.00322 36.6158 1 31.5723C-0.00321551 26.5288 0.511614 21.3007 2.47949 16.5498C4.4474 11.7991 7.78013 7.73865 12.0557 4.88184C16.3313 2.02506 21.3578 0.500001 26.5 0.5ZM34.6729 6.76855C30.7704 5.15214 26.4758 4.72965 22.333 5.55371C18.1903 6.37785 14.3852 8.41171 11.3984 11.3984C8.41171 14.3852 6.37784 18.1903 5.55371 22.333C4.72965 26.4758 5.15214 30.7704 6.76855 34.6729C8.38503 38.5754 11.1226 41.9111 14.6348 44.2578C18.1469 46.6045 22.276 47.8574 26.5 47.8574C32.1643 47.8574 37.5963 45.6068 41.6016 41.6016C45.6068 37.5963 47.8574 32.1643 47.8574 26.5C47.8574 22.276 46.6045 18.1469 44.2578 14.6348C41.9111 11.1226 38.5754 8.38503 34.6729 6.76855Z" fill="#D69B64" stroke="#D69B64"/>
</svg>
