<svg width="298" height="345" viewBox="0 0 298 345" fill="none" xmlns="http://www.w3.org/2000/svg">
<g opacity="0.05">
<path d="M273.298 189.769V200.538H17.8723V189.769H273.298ZM258.404 80.2153L276.649 60.1615L315 89.4995C313.759 90.9849 311.773 92.4704 309.043 93.9559C306.56 95.4413 303.333 96.5554 299.362 97.2982V221.706C299.362 222.449 297.624 223.563 294.149 225.048C290.674 226.534 286.454 228.019 281.489 229.505C276.773 230.743 272.429 231.362 268.457 231.362H262.128V80.2153H258.404ZM36.8617 224.306C36.8617 225.296 35.2482 226.781 32.0213 228.762C29.0426 230.743 25.195 232.6 20.4787 234.333C15.7624 235.818 10.7979 236.561 5.58511 236.561H0V63.5038L39.8404 79.8439H271.436V90.6136H36.8617V224.306ZM181.702 5.19914C181.206 7.67492 179.965 9.90312 177.979 11.8837C176.241 13.6168 172.89 14.8547 167.926 15.5974V331.259C167.926 332.497 166.436 334.23 163.457 336.459C160.479 338.934 156.631 340.915 151.915 342.4C147.199 344.133 142.482 345 137.766 345H130.319V0L181.702 5.19914Z" fill="#0F172A"/>
<path d="M273.298 189.769V200.538H17.8723V189.769H273.298ZM258.404 80.2153L276.649 60.1615L315 89.4995C313.759 90.9849 311.773 92.4704 309.043 93.9559C306.56 95.4413 303.333 96.5554 299.362 97.2982V221.706C299.362 222.449 297.624 223.563 294.149 225.048C290.674 226.534 286.454 228.019 281.489 229.505C276.773 230.743 272.429 231.362 268.457 231.362H262.128V80.2153H258.404ZM36.8617 224.306C36.8617 225.296 35.2482 226.781 32.0213 228.762C29.0426 230.743 25.195 232.6 20.4787 234.333C15.7624 235.818 10.7979 236.561 5.58511 236.561H0V63.5038L39.8404 79.8439H271.436V90.6136H36.8617V224.306ZM181.702 5.19914C181.206 7.67492 179.965 9.90312 177.979 11.8837C176.241 13.6168 172.89 14.8547 167.926 15.5974V331.259C167.926 332.497 166.436 334.23 163.457 336.459C160.479 338.934 156.631 340.915 151.915 342.4C147.199 344.133 142.482 345 137.766 345H130.319V0L181.702 5.19914Z" fill="black" fill-opacity="0.2"/>
</g>
</svg>
