<svg width="1359" height="126" viewBox="0 0 1359 126" fill="none" xmlns="http://www.w3.org/2000/svg">
<path d="M12.61 97.89C12.7833 90.5233 12.87 83.1567 12.87 75.79C12.87 68.3367 12.87 60.8833 12.87 53.43V46.8C12.87 39.3467 12.87 31.9367 12.87 24.57C12.87 17.1167 12.7833 9.70668 12.61 2.34001H28.86C28.6867 9.62001 28.5567 16.9867 28.47 24.44C28.47 31.8933 28.47 39.3467 28.47 46.8V53.3C28.47 60.84 28.47 68.2933 28.47 75.66C28.5567 83.0267 28.6867 90.4367 28.86 97.89H12.61ZM68.9 97.89C69.0733 90.5233 69.16 83.1567 69.16 75.79C69.16 68.4233 69.16 60.9267 69.16 53.3V46.8C69.16 39.3467 69.16 31.9367 69.16 24.57C69.16 17.1167 69.0733 9.70668 68.9 2.34001H85.15C85.0633 9.62001 84.9767 16.9867 84.89 24.44C84.89 31.8933 84.89 39.3467 84.89 46.8V53.43C84.89 60.7967 84.89 68.2067 84.89 75.66C84.9767 83.0267 85.0633 90.4367 85.15 97.89H68.9ZM-5.43892e-06 97.89V93.73L18.72 92.04H21.97L41.08 93.73V97.89H-5.43892e-06ZM56.68 97.89V93.73L75.66 92.04H78.78L97.76 93.73V97.89H56.68ZM-5.43892e-06 6.37001V2.34001H20.67V8.06001H19.11L-5.43892e-06 6.37001ZM77.09 8.06001V2.34001H97.76V6.37001L78.65 8.06001H77.09ZM20.67 6.89001V2.34001H77.09V6.89001H20.67ZM164.194 100.23C158.301 100.23 152.711 99.1467 147.424 96.98C142.137 94.7267 137.457 91.4767 133.384 87.23C129.311 82.9833 126.104 77.74 123.764 71.5C121.424 65.26 120.254 58.11 120.254 50.05C120.254 42.0767 121.424 35.0133 123.764 28.86C126.104 22.62 129.311 17.3767 133.384 13.13C137.457 8.79668 142.137 5.54668 147.424 3.38001C152.711 1.12668 158.301 1.19209e-05 164.194 1.19209e-05C170.087 1.19209e-05 175.634 1.08334 180.834 3.25001C186.121 5.41668 190.801 8.66668 194.874 13C198.947 17.2467 202.154 22.49 204.494 28.73C206.834 34.8833 208.004 41.99 208.004 50.05C208.004 58.0233 206.834 65.13 204.494 71.37C202.154 77.61 198.947 82.8967 194.874 87.23C190.801 91.4767 186.121 94.7267 180.834 96.98C175.634 99.1467 170.087 100.23 164.194 100.23ZM164.194 95.55C168.787 95.55 172.774 94.38 176.154 92.04C179.621 89.7 182.481 86.4933 184.734 82.42C186.987 78.26 188.677 73.4067 189.804 67.86C190.931 62.3133 191.494 56.3767 191.494 50.05C191.494 43.7233 190.931 37.83 189.804 32.37C188.677 26.91 186.987 22.1 184.734 17.94C182.481 13.78 179.621 10.53 176.154 8.19001C172.774 5.85001 168.787 4.68001 164.194 4.68001C159.601 4.68001 155.571 5.85001 152.104 8.19001C148.724 10.53 145.864 13.78 143.524 17.94C141.271 22.1 139.537 26.91 138.324 32.37C137.197 37.83 136.634 43.7233 136.634 50.05C136.634 56.3767 137.197 62.3133 138.324 67.86C139.537 73.4067 141.271 78.26 143.524 82.42C145.864 86.4933 148.724 89.7 152.104 92.04C155.571 94.38 159.601 95.55 164.194 95.55ZM246.444 97.89V93.73L266.464 92.04H270.624L290.904 93.73V97.89H246.444ZM260.614 97.89C260.788 90.5233 260.874 83.1567 260.874 75.79C260.961 68.3367 261.004 60.8833 261.004 53.43V46.8C261.004 39.3467 260.961 31.9367 260.874 24.57C260.874 17.1167 260.788 9.70668 260.614 2.34001H276.734C276.648 9.62001 276.561 16.9867 276.474 24.44C276.474 31.8933 276.474 39.3467 276.474 46.8V53.3C276.474 60.7533 276.474 68.2067 276.474 75.66C276.561 83.0267 276.648 90.4367 276.734 97.89H260.614ZM227.464 28.34L228.244 2.34001H309.104L310.014 28.34H303.644L297.794 2.34001L305.074 7.02001H232.274L239.684 2.34001L233.704 28.34H227.464ZM373.2 100.23C367.306 100.23 361.716 99.1467 356.43 96.98C351.143 94.7267 346.463 91.4767 342.39 87.23C338.316 82.9833 335.11 77.74 332.77 71.5C330.43 65.26 329.26 58.11 329.26 50.05C329.26 42.0767 330.43 35.0133 332.77 28.86C335.11 22.62 338.316 17.3767 342.39 13.13C346.463 8.79668 351.143 5.54668 356.43 3.38001C361.716 1.12668 367.306 1.19209e-05 373.2 1.19209e-05C379.093 1.19209e-05 384.64 1.08334 389.84 3.25001C395.126 5.41668 399.806 8.66668 403.88 13C407.953 17.2467 411.16 22.49 413.5 28.73C415.84 34.8833 417.01 41.99 417.01 50.05C417.01 58.0233 415.84 65.13 413.5 71.37C411.16 77.61 407.953 82.8967 403.88 87.23C399.806 91.4767 395.126 94.7267 389.84 96.98C384.64 99.1467 379.093 100.23 373.2 100.23ZM373.2 95.55C377.793 95.55 381.78 94.38 385.16 92.04C388.626 89.7 391.486 86.4933 393.74 82.42C395.993 78.26 397.683 73.4067 398.81 67.86C399.936 62.3133 400.5 56.3767 400.5 50.05C400.5 43.7233 399.936 37.83 398.81 32.37C397.683 26.91 395.993 22.1 393.74 17.94C391.486 13.78 388.626 10.53 385.16 8.19001C381.78 5.85001 377.793 4.68001 373.2 4.68001C368.606 4.68001 364.576 5.85001 361.11 8.19001C357.73 10.53 354.87 13.78 352.53 17.94C350.276 22.1 348.543 26.91 347.33 32.37C346.203 37.83 345.64 43.7233 345.64 50.05C345.64 56.3767 346.203 62.3133 347.33 67.86C348.543 73.4067 350.276 78.26 352.53 82.42C354.87 86.4933 357.73 89.7 361.11 92.04C364.576 94.38 368.606 95.55 373.2 95.55ZM439.593 97.89V93.73L458.703 92.04H461.953L481.193 93.73V97.89H439.593ZM439.593 6.37001V2.34001H481.193V6.37001L461.953 8.06001H458.703L439.593 6.37001ZM452.333 97.89C452.506 90.5233 452.593 83.1567 452.593 75.79C452.593 68.3367 452.593 60.8833 452.593 53.43V46.8C452.593 39.3467 452.593 31.9367 452.593 24.57C452.593 17.1167 452.506 9.70668 452.333 2.34001H468.453C468.366 9.62001 468.28 17.03 468.193 24.57C468.193 32.11 468.193 39.91 468.193 47.97V50.44C468.193 59.3667 468.193 67.6433 468.193 75.27C468.28 82.8967 468.366 90.4367 468.453 97.89H452.333ZM500.303 88.66L493.673 67.47C491.766 61.23 489.383 56.94 486.523 54.6C483.663 52.26 479.676 51.09 474.563 51.09H461.173V46.93H474.173C476.6 46.93 478.766 46.67 480.673 46.15C482.58 45.63 484.313 44.6767 485.873 43.29C487.52 41.8167 489.08 39.78 490.553 37.18C492.026 34.4933 493.543 31.0267 495.103 26.78C497.443 20.28 499.696 15.1667 501.863 11.44C504.03 7.62668 506.37 4.85334 508.883 3.12001C511.396 1.30001 514.256 0.260009 517.463 1.19209e-05C520.15 0.52001 522.143 1.56001 523.443 3.12001C524.743 4.59335 525.393 6.37001 525.393 8.45001C525.393 10.3567 524.656 12.0467 523.183 13.52C521.71 14.9933 519.5 15.73 516.553 15.73C514.733 15.8167 512.74 15.5567 510.573 14.95C508.493 14.3433 506.023 13.4767 503.163 12.35L509.663 8.71001C508.103 10.8767 506.76 12.87 505.633 14.69C504.506 16.51 503.423 18.5033 502.383 20.67C501.43 22.75 500.346 25.3067 499.133 28.34C497.4 32.5 495.753 35.9233 494.193 38.61C492.72 41.2967 491.16 43.42 489.513 44.98C487.866 46.4533 486.003 47.6233 483.923 48.49C481.843 49.27 479.416 49.9633 476.643 50.57L476.903 48.23C483.576 48.5767 489.08 49.5733 493.413 51.22C497.833 52.8667 501.3 55.1633 503.813 58.11C506.326 61.0567 508.19 64.74 509.403 69.16L517.853 95.94L510.703 92.56L529.943 93.86V97.89C527.95 98.3233 525.826 98.67 523.573 98.93C521.32 99.2767 518.936 99.45 516.423 99.45C513.043 99.45 510.313 99.1033 508.233 98.41C506.153 97.8033 504.463 96.72 503.163 95.16C501.95 93.6 500.996 91.4333 500.303 88.66ZM589.078 97.89V93.73L603.248 92.04H606.238L620.798 93.73V97.89H589.078ZM597.398 97.89L630.548 47.32L634.058 50.05H633.408L631.588 53.17L604.028 97.89H597.398ZM637.438 97.89V93.73L656.418 92.04H660.968L678.518 93.73V97.89H637.438ZM637.178 48.1L633.668 45.63H634.318L636.008 42.77L660.448 2.34001H666.688L637.178 48.1ZM653.818 97.89L597.528 2.34001H614.558L670.848 97.89H653.818ZM590.508 6.37001V2.34001H630.938V6.37001L612.738 8.06001H607.928L590.508 6.37001ZM644.068 6.37001V2.34001H675.398V6.37001L661.228 7.93001H658.368L644.068 6.37001ZM695.104 97.89V93.73L707.974 92.17H710.314L724.354 93.73V97.89H695.104ZM704.204 97.89L736.314 1.69001H745.934L778.564 97.89H762.834L734.884 11.57H737.484L737.094 13.39L710.314 97.89H704.204ZM718.504 66.17L719.284 61.88H759.714L760.494 66.17H718.504ZM747.234 97.89V93.73L764.784 92.04H770.114L787.664 93.73V97.89H747.234ZM805.553 97.89V93.73L824.273 92.04H827.523L846.633 93.73V97.89H805.553ZM818.163 97.89C818.336 90.5233 818.423 83.1567 818.423 75.79C818.423 68.3367 818.423 60.8833 818.423 53.43V46.8C818.423 39.3467 818.423 31.9367 818.423 24.57C818.423 17.1167 818.336 9.70668 818.163 2.34001H834.413C834.24 9.62001 834.11 16.9867 834.023 24.44C834.023 31.8933 834.023 39.3467 834.023 46.8V50.31C834.023 59.2367 834.023 67.5567 834.023 75.27C834.11 82.8967 834.24 90.4367 834.413 97.89H818.163ZM826.223 50.96V46.41H884.333V50.96H826.223ZM863.793 97.89V93.73L882.773 92.04H886.023L904.743 93.73V97.89H863.793ZM876.013 97.89C876.186 90.5233 876.273 83.0267 876.273 75.4C876.36 67.6867 876.403 59.3233 876.403 50.31V46.8C876.403 39.3467 876.36 31.9367 876.273 24.57C876.273 17.1167 876.186 9.70668 876.013 2.34001H892.263C892.176 9.62001 892.09 16.9867 892.003 24.44C892.003 31.8933 892.003 39.3467 892.003 46.8V53.43C892.003 60.7967 892.003 68.2067 892.003 75.66C892.09 83.0267 892.176 90.4367 892.263 97.89H876.013ZM805.553 6.37001V2.34001H846.633V6.37001L827.523 8.06001H824.273L805.553 6.37001ZM863.793 6.37001V2.34001H904.743V6.37001L886.023 8.06001H882.773L863.793 6.37001ZM949.769 97.89V93.34H967.709C975.595 93.34 981.532 91.3467 985.519 87.36C989.505 83.3733 991.499 77.61 991.499 70.07C991.499 62.79 989.592 56.9833 985.779 52.65C982.052 48.3167 975.855 46.15 967.189 46.15C964.155 46.15 961.165 46.28 958.219 46.54C955.359 46.8 952.542 47.2333 949.769 47.84V43.29C952.802 42.6833 955.965 42.25 959.259 41.99C962.552 41.73 966.192 41.6 970.179 41.6C978.759 41.6 985.735 42.8133 991.109 45.24C996.482 47.58 1000.43 50.8733 1002.94 55.12C1005.54 59.28 1006.84 64.09 1006.84 69.55C1006.84 75.1833 1005.45 80.1667 1002.68 84.5C999.905 88.7467 995.659 92.04 989.939 94.38C984.219 96.72 976.939 97.89 968.099 97.89H949.769ZM941.709 97.89C941.882 90.4367 941.969 83.0267 941.969 75.66C941.969 68.2067 941.969 60.7967 941.969 53.43V46.8C941.969 39.3467 941.969 31.8933 941.969 24.44C941.969 16.9867 941.882 9.62001 941.709 2.34001H957.959C957.785 9.62001 957.655 16.9 957.569 24.18C957.569 31.46 957.569 38.3067 957.569 44.72V53.43C957.569 60.8833 957.569 68.3367 957.569 75.79C957.655 83.1567 957.785 90.5233 957.959 97.89H941.709ZM928.969 6.37001V2.34001H971.609V6.37001L952.369 8.06001H948.209L928.969 6.37001ZM928.969 97.89V93.73L948.079 92.04H949.769V97.89H928.969ZM1040.37 97.89C1040.55 90.4367 1040.63 83.0267 1040.63 75.66C1040.63 68.2067 1040.63 60.7967 1040.63 53.43V46.8C1040.63 39.3467 1040.63 31.8933 1040.63 24.44C1040.63 16.9867 1040.55 9.62001 1040.37 2.34001H1056.62C1056.45 9.70668 1056.32 17.0733 1056.23 24.44C1056.23 31.8067 1056.23 39.26 1056.23 46.8V53.43C1056.23 60.8833 1056.23 68.3367 1056.23 75.79C1056.32 83.1567 1056.45 90.5233 1056.62 97.89H1040.37ZM1095.88 97.89C1096.14 90.5233 1096.27 83.1567 1096.27 75.79C1096.36 68.3367 1096.4 60.84 1096.4 53.3V46.8C1096.4 39.3467 1096.36 31.8933 1096.27 24.44C1096.27 16.9867 1096.14 9.62001 1095.88 2.34001H1112.26C1112.09 9.62001 1111.96 16.9433 1111.87 24.31C1111.87 31.6767 1111.87 39.1733 1111.87 46.8V53.43C1111.87 60.7967 1111.87 68.2067 1111.87 75.66C1111.96 83.0267 1112.09 90.4367 1112.26 97.89H1095.88ZM1048.43 97.89V93.08H1126.69L1125.26 125.45H1119.54L1115.12 93.73L1122.14 97.89H1048.43ZM1027.76 6.37001V2.34001H1068.58V6.37001L1049.73 8.06001H1046.48L1027.76 6.37001ZM1083.92 6.37001V2.34001H1124.74V6.37001L1105.89 8.06001H1102.64L1083.92 6.37001ZM1027.76 97.89V93.73L1046.87 92.04H1048.43V97.89H1027.76ZM1179.31 100.23C1169.09 100.23 1161.42 98.3667 1156.3 94.64C1151.19 90.8267 1148.11 85.6267 1147.07 79.04C1147.68 77.3933 1148.55 76.18 1149.67 75.4C1150.89 74.62 1152.19 74.23 1153.57 74.23C1155.65 74.23 1157.3 74.88 1158.51 76.18C1159.73 77.3933 1160.64 79.6033 1161.24 82.81L1164.1 95.42L1158.77 91.13C1161.29 92.8633 1163.8 94.0333 1166.31 94.64C1168.91 95.2467 1171.95 95.55 1175.41 95.55C1183.04 95.55 1189.19 93.5567 1193.87 89.57C1198.55 85.4967 1200.89 79.6467 1200.89 72.02C1200.89 65 1198.9 59.6267 1194.91 55.9C1191.01 52.1733 1184.64 50.31 1175.8 50.31H1171.25V45.89H1174.89C1182.78 45.89 1188.72 44.1567 1192.7 40.69C1196.69 37.1367 1198.68 31.9367 1198.68 25.09C1198.68 18.85 1197.04 13.91 1193.74 10.27C1190.54 6.54335 1185.21 4.68001 1177.75 4.68001C1174.2 4.68001 1170.86 5.02668 1167.74 5.72001C1164.71 6.41334 1161.72 7.58334 1158.77 9.23001V5.98001L1164.88 4.29001L1159.42 27.17H1153.18L1152.4 6.89001C1156.22 4.63668 1160.51 2.94668 1165.27 1.82001C1170.13 0.606679 1175.33 1.19209e-05 1180.87 1.19209e-05C1191.62 1.19209e-05 1199.68 2.29668 1205.05 6.89001C1210.51 11.3967 1213.24 17.3333 1213.24 24.7C1213.24 30.5933 1210.82 35.7067 1205.96 40.04C1201.2 44.3733 1193.74 47.0167 1183.6 47.97V47.06C1191.75 47.32 1198.25 48.62 1203.1 50.96C1207.96 53.3 1211.47 56.3333 1213.63 60.06C1215.8 63.7867 1216.88 68.0333 1216.88 72.8C1216.88 77.8267 1215.41 82.42 1212.46 86.58C1209.6 90.74 1205.36 94.0767 1199.72 96.59C1194.18 99.0167 1187.37 100.23 1179.31 100.23ZM1257.95 97.89V93.34H1274.2C1281.48 93.34 1287.07 91.39 1290.97 87.49C1294.87 83.59 1296.82 77.8267 1296.82 70.2C1296.82 62.7467 1294.95 56.8967 1291.23 52.65C1287.5 48.3167 1281.56 46.15 1273.42 46.15C1270.56 46.15 1267.87 46.28 1265.36 46.54C1262.93 46.8 1260.46 47.2333 1257.95 47.84V43.29C1260.72 42.77 1263.58 42.38 1266.53 42.12C1269.56 41.7733 1273.03 41.6 1276.93 41.6C1284.99 41.6 1291.62 42.8133 1296.82 45.24C1302.02 47.58 1305.87 50.83 1308.39 54.99C1310.9 59.15 1312.16 63.9167 1312.16 69.29C1312.16 78.2167 1309.08 85.2367 1302.93 90.35C1296.86 95.3767 1287.59 97.89 1275.11 97.89H1257.95ZM1249.89 97.89C1250.06 90.4367 1250.15 83.0267 1250.15 75.66C1250.23 68.2067 1250.28 60.7967 1250.28 53.43V46.8C1250.28 39.3467 1250.23 31.8933 1250.15 24.44C1250.15 16.9867 1250.06 9.62001 1249.89 2.34001H1266.01C1265.92 9.62001 1265.83 16.9 1265.75 24.18C1265.75 31.46 1265.75 38.3067 1265.75 44.72V53.43C1265.75 60.8833 1265.75 68.3367 1265.75 75.79C1265.83 83.1567 1265.92 90.5233 1266.01 97.89H1249.89ZM1329.06 97.89C1329.32 90.5233 1329.45 83.1567 1329.45 75.79C1329.53 68.3367 1329.58 60.8833 1329.58 53.43V46.8C1329.58 39.3467 1329.53 31.9367 1329.45 24.57C1329.45 17.1167 1329.32 9.70668 1329.06 2.34001H1345.44C1345.18 9.62001 1345 16.9867 1344.92 24.44C1344.92 31.8933 1344.92 39.3467 1344.92 46.8V53.3C1344.92 60.7533 1344.92 68.2067 1344.92 75.66C1345 83.0267 1345.18 90.4367 1345.44 97.89H1329.06ZM1237.15 6.37001V2.34001H1279.14V6.37001L1260.68 8.06001H1256.39L1237.15 6.37001ZM1316.58 97.89V93.73L1335.56 92.04H1338.81L1358.05 93.73V97.89H1316.58ZM1316.58 6.37001V2.34001H1358.05V6.37001L1338.81 8.06001H1335.56L1316.58 6.37001ZM1237.15 97.89V93.73L1256.26 92.04H1257.95V97.89H1237.15Z" fill="url(#paint0_linear_186_98)"/>
<defs>
<linearGradient id="paint0_linear_186_98" x1="-6.24001" y1="51.89" x2="1457.76" y2="51.89" gradientUnits="userSpaceOnUse">
<stop stop-color="#F5BF8D"/>
<stop offset="1" stop-color="white"/>
</linearGradient>
</defs>
</svg>
