<svg width="1291" height="112" viewBox="0 0 1291 112" fill="none" xmlns="http://www.w3.org/2000/svg">
<path d="M14.065 109.185C14.2583 100.968 14.355 92.7517 14.355 84.5351C14.355 76.2217 14.355 67.9084 14.355 59.5951V52.2001C14.355 43.8867 14.355 35.6217 14.355 27.4051C14.355 19.0917 14.2583 10.8267 14.065 2.61006H31.755C31.5617 10.7301 31.4167 18.9467 31.32 27.2601C31.32 35.5734 31.32 43.8867 31.32 52.2001L30.45 109.185H14.065ZM80.765 109.185C80.9583 100.968 81.055 92.7034 81.055 84.3901C81.1517 76.0767 81.2 67.5217 81.2 58.7251L82.07 2.61006H98.455C98.165 10.7301 97.9717 18.9467 97.875 27.2601C97.875 35.5734 97.875 43.8867 97.875 52.2001V59.5951C97.875 67.8117 97.875 76.0767 97.875 84.3901C97.9717 92.6067 98.165 100.872 98.455 109.185H80.765ZM-6.65337e-06 109.185V104.545L20.88 102.66H24.505L45.82 104.545V109.185H-6.65337e-06ZM-6.65337e-06 7.10505V2.61006H45.82V7.10505L24.505 8.99005H20.88L-6.65337e-06 7.10505ZM66.555 109.185V104.545L87.87 102.66H91.35L112.375 104.545V109.185H66.555ZM66.555 7.10505V2.61006H112.375V7.10505L91.35 8.99005H87.87L66.555 7.10505ZM26.825 101.79L23.345 94.9751H25.665L55.39 52.9251L85.115 10.2951L89.175 16.6751H86.855L56.115 60.6101L26.825 101.79ZM136.459 109.185V104.545L157.774 102.66H159.659V109.185H136.459ZM150.669 109.185C150.862 100.968 150.959 92.7517 150.959 84.5351C150.959 76.2217 150.959 67.9084 150.959 59.5951V52.2001C150.959 43.8867 150.959 35.6217 150.959 27.4051C150.959 19.0917 150.862 10.8267 150.669 2.61006H168.649C168.552 10.7301 168.455 18.9951 168.359 27.4051C168.359 35.8151 168.359 44.5151 168.359 53.5051V57.1301C168.359 66.6034 168.359 75.5934 168.359 84.1001C168.455 92.5101 168.552 100.872 168.649 109.185H150.669ZM159.659 109.185V103.965H214.614L205.914 108.315L212.149 81.3451H218.964L218.529 109.185H159.659ZM159.659 57.4201V52.4901H195.039V57.4201H159.659ZM193.734 72.2101L191.559 56.1151V53.0701L193.734 37.2651H199.534V72.2101H193.734ZM136.459 7.10505V2.61006H159.659V8.99005H157.774L136.459 7.10505ZM209.249 29.7251L203.304 3.19006L211.859 7.83005H159.659V2.61006H215.774L216.354 29.7251H209.249ZM242.331 109.185V104.545L263.646 102.66H268.721L290.616 104.545V109.185H242.331ZM256.541 109.185C256.735 100.968 256.831 92.7517 256.831 84.5351C256.831 76.2217 256.831 67.9084 256.831 59.5951V52.2001C256.831 43.8867 256.831 35.6217 256.831 27.4051C256.831 19.0917 256.735 10.8267 256.541 2.61006H274.521C274.425 10.7301 274.328 18.9467 274.231 27.2601C274.231 35.5734 274.231 43.8867 274.231 52.2001V62.3501C274.231 69.4067 274.231 76.8984 274.231 84.8251C274.328 92.7517 274.425 100.872 274.521 109.185H256.541ZM265.531 65.8301V60.9001H281.191C287.958 60.9001 293.42 59.7401 297.576 57.4201C301.733 55.1001 304.778 51.9101 306.711 47.8501C308.741 43.7901 309.756 39.1017 309.756 33.7851C309.756 25.1817 307.63 18.7051 303.376 14.3551C299.123 9.90839 292.646 7.68505 283.946 7.68505H265.531V2.61006H284.526C299.123 2.61006 309.708 5.36506 316.281 10.8751C322.951 16.3851 326.286 24.0217 326.286 33.7851C326.286 39.7784 324.788 45.1917 321.791 50.0251C318.795 54.8584 314.01 58.7251 307.436 61.6251C300.96 64.4284 292.356 65.8301 281.626 65.8301H265.531ZM242.331 7.10505V2.61006H265.531V8.99005H263.646L242.331 7.10505ZM398.215 111.795C391.642 111.795 385.407 110.587 379.51 108.17C373.614 105.657 368.394 102.032 363.85 97.2951C359.307 92.5584 355.73 86.7101 353.12 79.7501C350.51 72.7901 349.205 64.8151 349.205 55.8251C349.205 46.9317 350.51 39.0534 353.12 32.1901C355.73 25.2301 359.307 19.3817 363.85 14.6451C368.394 9.81172 373.614 6.18672 379.51 3.77005C385.407 1.25672 391.642 5.55515e-05 398.215 5.55515e-05C404.789 5.55515e-05 410.975 1.20839 416.775 3.62505C422.672 6.04172 427.892 9.66672 432.435 14.5001C436.979 19.2367 440.555 25.0851 443.165 32.0451C445.775 38.9084 447.08 46.8351 447.08 55.8251C447.08 64.7184 445.775 72.6451 443.165 79.6051C440.555 86.5651 436.979 92.4617 432.435 97.2951C427.892 102.032 422.672 105.657 416.775 108.17C410.975 110.587 404.789 111.795 398.215 111.795ZM398.215 106.575C403.339 106.575 407.785 105.27 411.555 102.66C415.422 100.05 418.612 96.4734 421.125 91.9301C423.639 87.2901 425.524 81.8767 426.78 75.6901C428.037 69.5034 428.665 62.8817 428.665 55.8251C428.665 48.7684 428.037 42.1951 426.78 36.1051C425.524 30.0151 423.639 24.6501 421.125 20.0101C418.612 15.3701 415.422 11.7451 411.555 9.13505C407.785 6.52506 403.339 5.22006 398.215 5.22006C393.092 5.22006 388.597 6.52506 384.73 9.13505C380.96 11.7451 377.77 15.3701 375.16 20.0101C372.647 24.6501 370.714 30.0151 369.36 36.1051C368.104 42.1951 367.475 48.7684 367.475 55.8251C367.475 62.8817 368.104 69.5034 369.36 75.6901C370.714 81.8767 372.647 87.2901 375.16 91.9301C377.77 96.4734 380.96 100.05 384.73 102.66C388.597 105.27 393.092 106.575 398.215 106.575ZM483.58 109.185C483.773 100.968 483.87 92.8001 483.87 84.6801C483.87 76.4634 483.87 68.3917 483.87 60.4651V52.2001C483.87 43.8867 483.87 35.6217 483.87 27.4051C483.87 19.0917 483.773 10.8267 483.58 2.61006H501.56C501.463 10.7301 501.366 18.9467 501.27 27.2601C501.27 35.5734 501.27 43.8867 501.27 52.2001V60.4651C501.27 68.2951 501.27 76.3184 501.27 84.5351C501.366 92.6551 501.463 100.872 501.56 109.185H483.58ZM492.57 7.83005V2.61006H547.38L547.96 32.3351H540.855L534.475 2.61006L542.885 7.83005H492.57ZM469.37 109.185V104.545L490.685 102.66H495.76L517.655 104.545V109.185H469.37ZM469.37 7.10505V2.61006H492.57V8.99005H490.685L469.37 7.10505ZM551.037 99.4701C552.004 97.4401 553.309 95.9417 554.952 94.9751C556.692 94.0084 558.771 93.5251 561.187 93.5251C563.797 93.5251 566.166 94.2017 568.292 95.5551C570.419 96.8117 572.594 98.6484 574.817 101.065V102.225H570.612V100.92C572.449 99.3734 574.141 97.5851 575.687 95.5551C577.331 93.5251 578.877 90.9634 580.327 87.8701C581.777 84.6801 583.179 80.6201 584.532 75.6901C586.369 68.5367 587.916 60.9967 589.172 53.0701C590.526 45.0467 591.589 36.7817 592.362 28.2751C593.232 19.7684 593.812 11.2134 594.102 2.61006H599.177C598.984 11.4067 598.501 20.1551 597.727 28.8551C596.954 37.5551 595.891 46.0134 594.537 54.2301C593.281 62.3501 591.686 70.1317 589.752 77.5751C586.562 89.6584 582.744 98.3584 578.297 103.675C573.851 108.895 568.679 111.505 562.782 111.505C559.302 111.505 556.451 110.538 554.227 108.605C552.101 106.575 551.037 103.53 551.037 99.4701ZM622.087 109.185C622.281 100.968 622.377 92.7517 622.377 84.5351C622.474 76.3184 622.522 68.0051 622.522 59.5951V52.2001C622.522 43.8867 622.474 35.5734 622.377 27.2601C622.377 18.9467 622.281 10.7301 622.087 2.61006H640.212C640.019 10.7301 639.874 18.9467 639.777 27.2601C639.777 35.5734 639.777 43.8867 639.777 52.2001V59.4501C639.777 67.7634 639.777 76.0767 639.777 84.3901C639.874 92.6067 640.019 100.872 640.212 109.185H622.087ZM608.167 109.185V104.545L629.337 102.66H632.962L654.422 104.545V109.185H608.167ZM578.877 7.10505V2.61006H596.712V8.70006H594.827L578.877 7.10505ZM631.222 8.99005V2.61006H654.422V7.10505L632.962 8.99005H631.222ZM596.712 7.83005V2.61006H631.222V7.83005H596.712ZM693.481 109.185C693.674 100.968 693.771 92.7517 693.771 84.5351C693.771 76.2217 693.771 67.9084 693.771 59.5951V52.2001C693.771 43.8867 693.771 35.6217 693.771 27.4051C693.771 19.0917 693.674 10.8267 693.481 2.61006H711.171C710.977 10.7301 710.832 18.9467 710.736 27.2601C710.736 35.5734 710.736 43.8867 710.736 52.2001L709.866 109.185H693.481ZM760.181 109.185C760.374 100.968 760.471 92.7034 760.471 84.3901C760.567 76.0767 760.616 67.5217 760.616 58.7251L761.486 2.61006H777.871C777.581 10.7301 777.387 18.9467 777.291 27.2601C777.291 35.5734 777.291 43.8867 777.291 52.2001V59.5951C777.291 67.8117 777.291 76.0767 777.291 84.3901C777.387 92.6067 777.581 100.872 777.871 109.185H760.181ZM679.416 109.185V104.545L700.296 102.66H703.921L725.236 104.545V109.185H679.416ZM679.416 7.10505V2.61006H725.236V7.10505L703.921 8.99005H700.296L679.416 7.10505ZM745.971 109.185V104.545L767.286 102.66H770.766L791.791 104.545V109.185H745.971ZM745.971 7.10505V2.61006H791.791V7.10505L770.766 8.99005H767.286L745.971 7.10505ZM706.241 101.79L702.761 94.9751H705.081L734.806 52.9251L764.531 10.2951L768.591 16.6751H766.271L735.531 60.6101L706.241 101.79ZM856.421 91.7851C846.078 91.7851 837.571 90.1417 830.901 86.8551C824.231 83.4717 819.253 79.0251 815.966 73.5151C812.776 67.9084 811.181 61.7701 811.181 55.1001C811.181 47.7534 812.824 41.2767 816.111 35.6701C819.494 29.9667 824.569 25.5201 831.336 22.3301C838.103 19.0434 846.561 17.4001 856.711 17.4001H863.961V22.1851H857.291C850.524 22.1851 844.869 23.6351 840.326 26.5351C835.879 29.3384 832.496 33.2051 830.176 38.1351C827.953 42.9684 826.841 48.5267 826.841 54.8101C826.841 60.7067 827.953 66.1201 830.176 71.0501C832.496 75.8834 835.879 79.7501 840.326 82.6501C844.869 85.5501 850.524 87.0001 857.291 87.0001H863.961V91.7851H856.421ZM863.236 91.7851V87.0001H869.906C876.769 87.0001 882.424 85.5501 886.871 82.6501C891.414 79.6534 894.798 75.6901 897.021 70.7601C899.244 65.8301 900.356 60.5134 900.356 54.8101C900.356 48.5267 899.244 42.9684 897.021 38.1351C894.798 33.2051 891.414 29.3384 886.871 26.5351C882.424 23.6351 876.769 22.1851 869.906 22.1851H863.236V17.4001H870.631C880.878 17.4001 889.336 19.0434 896.006 22.3301C902.773 25.5201 907.799 29.9667 911.086 35.6701C914.469 41.2767 916.161 47.7051 916.161 54.9551C916.161 61.5284 914.518 67.6184 911.231 73.2251C908.041 78.8317 903.063 83.3267 896.296 86.7101C889.626 90.0934 881.119 91.7851 870.776 91.7851H863.236ZM841.341 111.505V106.865L862.076 104.835H864.976L886.146 106.865V111.505H841.341ZM862.076 6.81505L841.341 4.93005V0.290052H886.146V4.93005L865.121 6.81505H862.076ZM856.131 111.505V0.290052H871.066V111.505H856.131ZM949.689 109.185C949.882 100.968 949.979 92.7517 949.979 84.5351C949.979 76.2217 949.979 67.9084 949.979 59.5951V52.2001C949.979 43.8867 949.979 35.6217 949.979 27.4051C949.979 19.0917 949.882 10.8267 949.689 2.61006H967.379C967.186 10.7301 967.041 18.9467 966.944 27.2601C966.944 35.5734 966.944 43.8867 966.944 52.2001L966.074 109.185H949.689ZM1016.39 109.185C1016.58 100.968 1016.68 92.7034 1016.68 84.3901C1016.78 76.0767 1016.82 67.5217 1016.82 58.7251L1017.69 2.61006H1034.08C1033.79 10.7301 1033.6 18.9467 1033.5 27.2601C1033.5 35.5734 1033.5 43.8867 1033.5 52.2001V59.5951C1033.5 67.8117 1033.5 76.0767 1033.5 84.3901C1033.6 92.6067 1033.79 100.872 1034.08 109.185H1016.39ZM935.624 109.185V104.545L956.504 102.66H960.129L981.444 104.545V109.185H935.624ZM935.624 7.10505V2.61006H981.444V7.10505L960.129 8.99005H956.504L935.624 7.10505ZM1002.18 109.185V104.545L1023.49 102.66H1026.97L1048 104.545V109.185H1002.18ZM1002.18 7.10505V2.61006H1048V7.10505L1026.97 8.99005H1023.49L1002.18 7.10505ZM962.449 101.79L958.969 94.9751H961.289L991.014 52.9251L1020.74 10.2951L1024.8 16.6751H1022.48L991.739 60.6101L962.449 101.79ZM1072.08 109.185V104.545L1093.4 102.66H1097.02L1118.48 104.545V109.185H1072.08ZM1072.08 7.10505V2.61006H1118.48V7.10505L1097.02 8.99005H1093.4L1072.08 7.10505ZM1086.29 109.185C1086.49 100.968 1086.58 92.7517 1086.58 84.5351C1086.58 76.2217 1086.58 67.9084 1086.58 59.5951V52.2001C1086.58 43.8867 1086.58 35.6217 1086.58 27.4051C1086.58 19.0917 1086.49 10.8267 1086.29 2.61006H1104.27C1104.18 10.7301 1104.08 18.9951 1103.98 27.4051C1103.98 35.8151 1103.98 44.5151 1103.98 53.5051V56.2601C1103.98 66.2167 1103.98 75.4484 1103.98 83.9551C1104.08 92.4617 1104.18 100.872 1104.27 109.185H1086.29ZM1139.8 98.8901L1132.4 75.2551C1130.28 68.2951 1127.62 63.5101 1124.43 60.9001C1121.24 58.2901 1116.79 56.9851 1111.09 56.9851H1096.15V52.3451H1110.65C1113.36 52.3451 1115.78 52.0551 1117.9 51.4751C1120.03 50.8951 1121.96 49.8317 1123.7 48.2851C1125.54 46.6417 1127.28 44.3701 1128.92 41.4701C1130.57 38.4734 1132.26 34.6067 1134 29.8701C1136.61 22.6201 1139.12 16.9167 1141.54 12.7601C1143.95 8.50672 1146.56 5.41339 1149.37 3.48005C1152.17 1.45005 1155.36 0.290052 1158.94 5.55515e-05C1161.93 0.580054 1164.16 1.74005 1165.61 3.48005C1167.06 5.12339 1167.78 7.10506 1167.78 9.42506C1167.78 11.5517 1166.96 13.4367 1165.32 15.0801C1163.67 16.7234 1161.21 17.5451 1157.92 17.5451C1155.89 17.6417 1153.67 17.3517 1151.25 16.6751C1148.93 15.9984 1146.18 15.0317 1142.99 13.7751L1150.24 9.71505C1148.5 12.1317 1147 14.3551 1145.74 16.3851C1144.49 18.4151 1143.28 20.6384 1142.12 23.0551C1141.05 25.3751 1139.85 28.2267 1138.49 31.6101C1136.56 36.2501 1134.72 40.0684 1132.98 43.0651C1131.34 46.0617 1129.6 48.4301 1127.76 50.1701C1125.93 51.8134 1123.85 53.1184 1121.53 54.0851C1119.21 54.9551 1116.5 55.7284 1113.41 56.4051L1113.7 53.7951C1121.14 54.1817 1127.28 55.2934 1132.11 57.1301C1137.04 58.9667 1140.91 61.5284 1143.71 64.8151C1146.52 68.1017 1148.59 72.2101 1149.95 77.1401L1159.37 107.01L1151.4 103.24L1172.86 104.69V109.185C1170.63 109.668 1168.27 110.055 1165.75 110.345C1163.24 110.732 1160.58 110.925 1157.78 110.925C1154.01 110.925 1150.96 110.538 1148.64 109.765C1146.32 109.088 1144.44 107.88 1142.99 106.14C1141.63 104.4 1140.57 101.983 1139.8 98.8901ZM1187.75 109.185V104.545L1202.1 102.805H1204.71L1220.37 104.545V109.185H1187.75ZM1197.9 109.185L1233.71 1.88506H1244.44L1280.84 109.185H1263.29L1232.12 12.9051H1235.02L1234.58 14.9351L1204.71 109.185H1197.9ZM1213.85 73.8051L1214.72 69.0201H1259.81L1260.68 73.8051H1213.85ZM1245.89 109.185V104.545L1265.47 102.66H1271.41L1290.99 104.545V109.185H1245.89Z" fill="url(#paint0_linear_186_98)"/>
<defs>
<linearGradient id="paint0_linear_186_98" x1="-6.96001" y1="46.1851" x2="1312.04" y2="46.1851" gradientUnits="userSpaceOnUse">
<stop stop-color="#F5BF8D"/>
<stop offset="1" stop-color="white"/>
</linearGradient>
</defs>
</svg>
