<svg width="20" height="20" viewBox="0 0 20 20" fill="none" xmlns="http://www.w3.org/2000/svg">
<rect width="20" height="20" rx="10" fill="#0F172A"/>
<path d="M8.57185 5H10.0004V15H8.57185L5.7147 12.1429H4.28613V7.85714H5.7147L8.57185 5Z" fill="white"/>
<path d="M14.2859 10.0001C14.2859 8.42211 13.0066 7.14293 11.4287 7.14293V5.71436C13.7956 5.71436 15.7144 7.63313 15.7144 10.0001C15.7144 12.367 13.7956 14.2858 11.4287 14.2858V12.8572C13.0066 12.8572 14.2859 11.578 14.2859 10.0001Z" fill="white"/>
<path d="M12.8573 9.99986C12.8573 10.7888 12.2177 11.4284 11.4287 11.4284V8.57129C12.2177 8.57129 12.8573 9.21088 12.8573 9.99986Z" fill="white"/>
</svg>
