<svg width="55" height="46" viewBox="0 0 55 46" fill="none" xmlns="http://www.w3.org/2000/svg">
<path d="M27.5 10.5057C27.5 5.82793 23.675 2 19.0008 2H2V32.6234H19.1054C27.5 32.6234 27.5 41.1316 27.5 41.1316M27.5 10.5057C27.5 5.82537 31.325 2 35.9991 2H53V32.6234H35.9991C27.5 32.6234 27.5 41.1316 27.5 41.1316M27.5 10.5057V41.1316M32.2812 44C32.8133 42.8972 33.6422 41.9648 34.6746 41.3075C35.7071 40.6502 36.9023 40.2941 38.1258 40.2793H50.45M22.7187 44C22.1964 42.8897 21.3699 41.9507 20.3352 41.292C19.3006 40.6334 18.1004 40.2822 16.8742 40.2793H4.55" stroke="#D69B64" stroke-width="4" stroke-miterlimit="10" stroke-linecap="round" stroke-linejoin="round"/>
</svg>
