<svg width="53" height="53" viewBox="0 0 53 53" fill="none" xmlns="http://www.w3.org/2000/svg">
<mask id="path-1-outside-1_169_101" maskUnits="userSpaceOnUse" x="0" y="0" width="53" height="53" fill="black">
<rect fill="white" width="53" height="53"/>
<path d="M12.7953 7.21404C13.0853 5.75787 13.7889 4.41617 14.822 3.34965C15.855 2.28314 17.1736 1.53704 18.6198 1.20072C20.066 0.864399 21.5785 0.952121 22.9761 1.45338C24.3737 1.95463 25.5972 2.84817 26.5 4.02696C27.4028 2.84817 28.6263 1.95463 30.0239 1.45338C31.4215 0.952121 32.934 0.864399 34.3802 1.20072C35.8264 1.53704 37.145 2.28314 38.178 3.34965C39.2111 4.41617 39.9147 5.75787 40.2047 7.21404L40.6031 9.21234L41.8971 9.4705C43.8461 9.86142 45.5996 10.915 46.8598 12.4523C48.12 13.9896 48.8091 15.9157 48.81 17.9035V18.5346C48.81 20.8484 47.822 22.9327 46.2443 24.3892C48.1713 25.3441 49.7531 26.8753 50.7699 28.7703C51.7867 30.6653 52.188 32.83 51.9182 34.9635C51.6483 37.0971 50.7207 39.0936 49.2641 40.6758C47.8075 42.2579 45.8943 43.3472 43.7902 43.7922L43.6723 44.3818C43.3051 46.2191 42.4014 47.9063 41.0755 49.2301C39.7496 50.5539 38.061 51.4549 36.2231 51.8192C34.3852 52.1835 32.4805 51.9947 30.7499 51.2768C29.0192 50.5588 27.5403 49.3439 26.5 47.7856C25.4597 49.3439 23.9808 50.5588 22.2501 51.2768C20.5195 51.9947 18.6148 52.1835 16.7769 51.8192C14.9391 51.4549 13.2504 50.5539 11.9245 49.2301C10.5986 47.9063 9.69489 46.2191 9.32768 44.3818L9.20976 43.7922C7.10572 43.3472 5.19252 42.2579 3.73593 40.6758C2.27934 39.0936 1.35168 37.0971 1.08183 34.9635C0.811976 32.83 1.21333 30.6653 2.23012 28.7703C3.24692 26.8753 4.82868 25.3441 6.75566 24.3892C5.94698 23.6433 5.30154 22.7381 4.85997 21.7305C4.41841 20.7228 4.1903 19.6347 4.19001 18.5346V17.9035C4.19095 15.9157 4.88004 13.9896 6.14022 12.4523C7.4004 10.915 9.15393 9.86142 11.1029 9.4705L12.3969 9.21553L12.7953 7.21404ZM40.8421 26.5023C40.4195 26.5023 40.0142 26.3344 39.7153 26.0355C39.4165 25.7367 39.2486 25.3314 39.2486 24.9087C39.2486 24.4861 39.4165 24.0808 39.7153 23.7819C40.0142 23.4831 40.4195 23.3152 40.8421 23.3152C42.1101 23.3152 43.3261 22.8115 44.2226 21.915C45.1192 21.0184 45.6229 19.8025 45.6229 18.5346V17.9035C45.6229 15.322 43.803 13.1038 41.2724 12.597L38.9362 12.1285C38.628 12.0667 38.3449 11.9152 38.1225 11.6929C37.9002 11.4705 37.7486 11.1874 37.6869 10.8792L37.0781 7.83871C36.8596 6.73261 36.2368 5.74759 35.3313 5.07575C34.4258 4.40391 33.3026 4.09343 32.1806 4.20487C31.0586 4.31631 30.0184 4.84168 29.2627 5.6785C28.5071 6.51533 28.0903 7.60361 28.0936 8.73109V42.5237C28.0962 44.0823 28.6776 45.5844 29.7249 46.7386C30.7723 47.8928 32.211 48.617 33.762 48.7706C35.313 48.9242 36.8658 48.4964 38.1192 47.5701C39.3726 46.6437 40.2374 45.2849 40.5457 43.7571L40.874 42.1254C40.9358 41.8171 41.0874 41.534 41.3097 41.3117C41.532 41.0894 41.8151 40.9378 42.1234 40.876L43.0508 40.688C44.7894 40.3348 46.3351 39.3493 47.3888 37.922C48.4424 36.4948 48.9291 34.7274 48.7546 32.962C48.5801 31.1966 47.7568 29.5587 46.444 28.3654C45.1313 27.172 43.4225 26.5082 41.6485 26.5023H40.8421ZM24.9064 39.2506V8.72472C24.9089 7.59752 24.4915 6.50979 23.7356 5.67357C22.9798 4.83735 21.9396 4.31259 20.8178 4.20157C19.6961 4.09055 18.5732 4.40124 17.6681 5.07306C16.7629 5.74489 16.1404 6.7297 15.9219 7.83552L15.3163 10.876C15.2543 11.1847 15.1023 11.4681 14.8793 11.6904C14.6564 11.9128 14.3726 12.0641 14.0638 12.1253L11.7276 12.5938C10.5009 12.8404 9.39726 13.504 8.60424 14.4719C7.81121 15.4397 7.37764 16.6523 7.37715 17.9035V18.5346C7.37715 19.8025 7.88083 21.0184 8.77739 21.915C9.67395 22.8115 10.8899 23.3152 12.1579 23.3152C12.5805 23.3152 12.9858 23.4831 13.2847 23.7819C13.5835 24.0808 13.7514 24.4861 13.7514 24.9087C13.7514 25.3314 13.5835 25.7367 13.2847 26.0355C12.9858 26.3344 12.5805 26.5023 12.1579 26.5023H11.3547C9.58039 26.5074 7.87109 27.1707 6.55777 28.3638C5.24446 29.5568 4.42057 31.1948 4.24563 32.9604C4.07069 34.7261 4.55714 36.4938 5.6108 37.9214C6.66446 39.349 8.21036 40.3348 9.94918 40.688L10.8766 40.876C11.1849 40.9378 11.468 41.0894 11.6903 41.3117C11.9126 41.534 12.0642 41.8171 12.126 42.1254L12.4543 43.7571C12.7626 45.2849 13.6274 46.6437 14.8808 47.5701C16.1342 48.4964 17.687 48.9242 19.238 48.7706C20.7891 48.617 22.2277 47.8928 23.2751 46.7386C24.3224 45.5844 24.9038 44.0823 24.9064 42.5237V39.2506Z"/>
</mask>
<path d="M12.7953 7.21404C13.0853 5.75787 13.7889 4.41617 14.822 3.34965C15.855 2.28314 17.1736 1.53704 18.6198 1.20072C20.066 0.864399 21.5785 0.952121 22.9761 1.45338C24.3737 1.95463 25.5972 2.84817 26.5 4.02696C27.4028 2.84817 28.6263 1.95463 30.0239 1.45338C31.4215 0.952121 32.934 0.864399 34.3802 1.20072C35.8264 1.53704 37.145 2.28314 38.178 3.34965C39.2111 4.41617 39.9147 5.75787 40.2047 7.21404L40.6031 9.21234L41.8971 9.4705C43.8461 9.86142 45.5996 10.915 46.8598 12.4523C48.12 13.9896 48.8091 15.9157 48.81 17.9035V18.5346C48.81 20.8484 47.822 22.9327 46.2443 24.3892C48.1713 25.3441 49.7531 26.8753 50.7699 28.7703C51.7867 30.6653 52.188 32.83 51.9182 34.9635C51.6483 37.0971 50.7207 39.0936 49.2641 40.6758C47.8075 42.2579 45.8943 43.3472 43.7902 43.7922L43.6723 44.3818C43.3051 46.2191 42.4014 47.9063 41.0755 49.2301C39.7496 50.5539 38.061 51.4549 36.2231 51.8192C34.3852 52.1835 32.4805 51.9947 30.7499 51.2768C29.0192 50.5588 27.5403 49.3439 26.5 47.7856C25.4597 49.3439 23.9808 50.5588 22.2501 51.2768C20.5195 51.9947 18.6148 52.1835 16.7769 51.8192C14.9391 51.4549 13.2504 50.5539 11.9245 49.2301C10.5986 47.9063 9.69489 46.2191 9.32768 44.3818L9.20976 43.7922C7.10572 43.3472 5.19252 42.2579 3.73593 40.6758C2.27934 39.0936 1.35168 37.0971 1.08183 34.9635C0.811976 32.83 1.21333 30.6653 2.23012 28.7703C3.24692 26.8753 4.82868 25.3441 6.75566 24.3892C5.94698 23.6433 5.30154 22.7381 4.85997 21.7305C4.41841 20.7228 4.1903 19.6347 4.19001 18.5346V17.9035C4.19095 15.9157 4.88004 13.9896 6.14022 12.4523C7.4004 10.915 9.15393 9.86142 11.1029 9.4705L12.3969 9.21553L12.7953 7.21404ZM40.8421 26.5023C40.4195 26.5023 40.0142 26.3344 39.7153 26.0355C39.4165 25.7367 39.2486 25.3314 39.2486 24.9087C39.2486 24.4861 39.4165 24.0808 39.7153 23.7819C40.0142 23.4831 40.4195 23.3152 40.8421 23.3152C42.1101 23.3152 43.3261 22.8115 44.2226 21.915C45.1192 21.0184 45.6229 19.8025 45.6229 18.5346V17.9035C45.6229 15.322 43.803 13.1038 41.2724 12.597L38.9362 12.1285C38.628 12.0667 38.3449 11.9152 38.1225 11.6929C37.9002 11.4705 37.7486 11.1874 37.6869 10.8792L37.0781 7.83871C36.8596 6.73261 36.2368 5.74759 35.3313 5.07575C34.4258 4.40391 33.3026 4.09343 32.1806 4.20487C31.0586 4.31631 30.0184 4.84168 29.2627 5.6785C28.5071 6.51533 28.0903 7.60361 28.0936 8.73109V42.5237C28.0962 44.0823 28.6776 45.5844 29.7249 46.7386C30.7723 47.8928 32.211 48.617 33.762 48.7706C35.313 48.9242 36.8658 48.4964 38.1192 47.5701C39.3726 46.6437 40.2374 45.2849 40.5457 43.7571L40.874 42.1254C40.9358 41.8171 41.0874 41.534 41.3097 41.3117C41.532 41.0894 41.8151 40.9378 42.1234 40.876L43.0508 40.688C44.7894 40.3348 46.3351 39.3493 47.3888 37.922C48.4424 36.4948 48.9291 34.7274 48.7546 32.962C48.5801 31.1966 47.7568 29.5587 46.444 28.3654C45.1313 27.172 43.4225 26.5082 41.6485 26.5023H40.8421ZM24.9064 39.2506V8.72472C24.9089 7.59752 24.4915 6.50979 23.7356 5.67357C22.9798 4.83735 21.9396 4.31259 20.8178 4.20157C19.6961 4.09055 18.5732 4.40124 17.6681 5.07306C16.7629 5.74489 16.1404 6.7297 15.9219 7.83552L15.3163 10.876C15.2543 11.1847 15.1023 11.4681 14.8793 11.6904C14.6564 11.9128 14.3726 12.0641 14.0638 12.1253L11.7276 12.5938C10.5009 12.8404 9.39726 13.504 8.60424 14.4719C7.81121 15.4397 7.37764 16.6523 7.37715 17.9035V18.5346C7.37715 19.8025 7.88083 21.0184 8.77739 21.915C9.67395 22.8115 10.8899 23.3152 12.1579 23.3152C12.5805 23.3152 12.9858 23.4831 13.2847 23.7819C13.5835 24.0808 13.7514 24.4861 13.7514 24.9087C13.7514 25.3314 13.5835 25.7367 13.2847 26.0355C12.9858 26.3344 12.5805 26.5023 12.1579 26.5023H11.3547C9.58039 26.5074 7.87109 27.1707 6.55777 28.3638C5.24446 29.5568 4.42057 31.1948 4.24563 32.9604C4.07069 34.7261 4.55714 36.4938 5.6108 37.9214C6.66446 39.349 8.21036 40.3348 9.94918 40.688L10.8766 40.876C11.1849 40.9378 11.468 41.0894 11.6903 41.3117C11.9126 41.534 12.0642 41.8171 12.126 42.1254L12.4543 43.7571C12.7626 45.2849 13.6274 46.6437 14.8808 47.5701C16.1342 48.4964 17.687 48.9242 19.238 48.7706C20.7891 48.617 22.2277 47.8928 23.2751 46.7386C24.3224 45.5844 24.9038 44.0823 24.9064 42.5237V39.2506Z" fill="#D69B64"/>
<path d="M12.7953 7.21404C13.0853 5.75787 13.7889 4.41617 14.822 3.34965C15.855 2.28314 17.1736 1.53704 18.6198 1.20072C20.066 0.864399 21.5785 0.952121 22.9761 1.45338C24.3737 1.95463 25.5972 2.84817 26.5 4.02696C27.4028 2.84817 28.6263 1.95463 30.0239 1.45338C31.4215 0.952121 32.934 0.864399 34.3802 1.20072C35.8264 1.53704 37.145 2.28314 38.178 3.34965C39.2111 4.41617 39.9147 5.75787 40.2047 7.21404L40.6031 9.21234L41.8971 9.4705C43.8461 9.86142 45.5996 10.915 46.8598 12.4523C48.12 13.9896 48.8091 15.9157 48.81 17.9035V18.5346C48.81 20.8484 47.822 22.9327 46.2443 24.3892C48.1713 25.3441 49.7531 26.8753 50.7699 28.7703C51.7867 30.6653 52.188 32.83 51.9182 34.9635C51.6483 37.0971 50.7207 39.0936 49.2641 40.6758C47.8075 42.2579 45.8943 43.3472 43.7902 43.7922L43.6723 44.3818C43.3051 46.2191 42.4014 47.9063 41.0755 49.2301C39.7496 50.5539 38.061 51.4549 36.2231 51.8192C34.3852 52.1835 32.4805 51.9947 30.7499 51.2768C29.0192 50.5588 27.5403 49.3439 26.5 47.7856C25.4597 49.3439 23.9808 50.5588 22.2501 51.2768C20.5195 51.9947 18.6148 52.1835 16.7769 51.8192C14.9391 51.4549 13.2504 50.5539 11.9245 49.2301C10.5986 47.9063 9.69489 46.2191 9.32768 44.3818L9.20976 43.7922C7.10572 43.3472 5.19252 42.2579 3.73593 40.6758C2.27934 39.0936 1.35168 37.0971 1.08183 34.9635C0.811976 32.83 1.21333 30.6653 2.23012 28.7703C3.24692 26.8753 4.82868 25.3441 6.75566 24.3892C5.94698 23.6433 5.30154 22.7381 4.85997 21.7305C4.41841 20.7228 4.1903 19.6347 4.19001 18.5346V17.9035C4.19095 15.9157 4.88004 13.9896 6.14022 12.4523C7.4004 10.915 9.15393 9.86142 11.1029 9.4705L12.3969 9.21553L12.7953 7.21404ZM40.8421 26.5023C40.4195 26.5023 40.0142 26.3344 39.7153 26.0355C39.4165 25.7367 39.2486 25.3314 39.2486 24.9087C39.2486 24.4861 39.4165 24.0808 39.7153 23.7819C40.0142 23.4831 40.4195 23.3152 40.8421 23.3152C42.1101 23.3152 43.3261 22.8115 44.2226 21.915C45.1192 21.0184 45.6229 19.8025 45.6229 18.5346V17.9035C45.6229 15.322 43.803 13.1038 41.2724 12.597L38.9362 12.1285C38.628 12.0667 38.3449 11.9152 38.1225 11.6929C37.9002 11.4705 37.7486 11.1874 37.6869 10.8792L37.0781 7.83871C36.8596 6.73261 36.2368 5.74759 35.3313 5.07575C34.4258 4.40391 33.3026 4.09343 32.1806 4.20487C31.0586 4.31631 30.0184 4.84168 29.2627 5.6785C28.5071 6.51533 28.0903 7.60361 28.0936 8.73109V42.5237C28.0962 44.0823 28.6776 45.5844 29.7249 46.7386C30.7723 47.8928 32.211 48.617 33.762 48.7706C35.313 48.9242 36.8658 48.4964 38.1192 47.5701C39.3726 46.6437 40.2374 45.2849 40.5457 43.7571L40.874 42.1254C40.9358 41.8171 41.0874 41.534 41.3097 41.3117C41.532 41.0894 41.8151 40.9378 42.1234 40.876L43.0508 40.688C44.7894 40.3348 46.3351 39.3493 47.3888 37.922C48.4424 36.4948 48.9291 34.7274 48.7546 32.962C48.5801 31.1966 47.7568 29.5587 46.444 28.3654C45.1313 27.172 43.4225 26.5082 41.6485 26.5023H40.8421ZM24.9064 39.2506V8.72472C24.9089 7.59752 24.4915 6.50979 23.7356 5.67357C22.9798 4.83735 21.9396 4.31259 20.8178 4.20157C19.6961 4.09055 18.5732 4.40124 17.6681 5.07306C16.7629 5.74489 16.1404 6.7297 15.9219 7.83552L15.3163 10.876C15.2543 11.1847 15.1023 11.4681 14.8793 11.6904C14.6564 11.9128 14.3726 12.0641 14.0638 12.1253L11.7276 12.5938C10.5009 12.8404 9.39726 13.504 8.60424 14.4719C7.81121 15.4397 7.37764 16.6523 7.37715 17.9035V18.5346C7.37715 19.8025 7.88083 21.0184 8.77739 21.915C9.67395 22.8115 10.8899 23.3152 12.1579 23.3152C12.5805 23.3152 12.9858 23.4831 13.2847 23.7819C13.5835 24.0808 13.7514 24.4861 13.7514 24.9087C13.7514 25.3314 13.5835 25.7367 13.2847 26.0355C12.9858 26.3344 12.5805 26.5023 12.1579 26.5023H11.3547C9.58039 26.5074 7.87109 27.1707 6.55777 28.3638C5.24446 29.5568 4.42057 31.1948 4.24563 32.9604C4.07069 34.7261 4.55714 36.4938 5.6108 37.9214C6.66446 39.349 8.21036 40.3348 9.94918 40.688L10.8766 40.876C11.1849 40.9378 11.468 41.0894 11.6903 41.3117C11.9126 41.534 12.0642 41.8171 12.126 42.1254L12.4543 43.7571C12.7626 45.2849 13.6274 46.6437 14.8808 47.5701C16.1342 48.4964 17.687 48.9242 19.238 48.7706C20.7891 48.617 22.2277 47.8928 23.2751 46.7386C24.3224 45.5844 24.9038 44.0823 24.9064 42.5237V39.2506Z" stroke="#D69B64" stroke-width="2" mask="url(#path-1-outside-1_169_101)"/>
</svg>
