<svg width="458" height="485" viewBox="0 0 458 485" fill="none" xmlns="http://www.w3.org/2000/svg">
<g opacity="0.05">
<path d="M84.1097 186.838H322.006V202.187H88.5889L84.1097 186.838ZM0.497691 310.161H383.222L408.106 276.816C408.106 276.816 409.599 278.051 412.585 280.521C415.903 282.991 419.885 286.343 424.53 290.578C429.507 294.812 434.484 299.223 439.461 303.81C444.769 308.397 449.58 312.808 453.894 317.042C452.567 322.335 448.253 324.981 440.954 324.981H4.97691L0.497691 310.161ZM212.016 253.528L262.781 259.35C261.785 266.76 255.979 271.347 245.361 273.111V432.955C245.361 442.483 244.034 450.951 241.38 458.361C239.057 465.771 233.749 471.77 225.454 476.357C217.159 480.944 204.219 484.12 186.634 485.884C185.307 480.238 183.648 475.122 181.657 470.535C179.666 466.3 176.68 462.772 172.699 459.949C167.722 456.773 161.086 453.95 152.791 451.48C144.828 449.363 133.879 447.423 119.943 445.658V437.19C119.943 437.19 122.266 437.366 126.911 437.719C131.556 438.072 137.363 438.601 144.33 439.307C151.298 439.66 158.431 440.189 165.731 440.895C173.362 441.248 180.164 441.6 186.136 441.953C192.109 442.306 196.256 442.483 198.579 442.483C203.887 442.483 207.371 441.6 209.03 439.836C211.021 438.072 212.016 435.073 212.016 430.838V253.528ZM56.239 112.738H419.055V128.616H56.239V112.738ZM48.7737 78.8635L57.2344 78.3342C63.8703 99.8585 66.6905 118.913 65.6951 135.497C64.6998 151.729 61.5477 165.313 56.239 176.252C50.9303 186.838 44.7921 194.777 37.8245 200.07C31.5204 205.363 24.7186 208.362 17.4192 209.068C10.1197 209.421 4.9769 206.598 1.99076 200.599C-0.663587 194.953 -0.663587 189.484 1.99076 184.191C4.64511 178.898 8.46074 174.664 13.4376 171.488C23.7232 164.431 32.5158 152.434 39.8152 135.497C47.4465 118.56 50.4326 99.6821 48.7737 78.8635ZM400.143 112.738H394.669L417.562 88.92L457.378 129.675C455.719 131.792 453.23 133.203 449.912 133.909C446.926 134.615 442.945 135.144 437.968 135.497C432.991 141.496 426.521 148.2 418.558 155.61C410.595 163.02 402.3 170.253 393.673 177.311C385.378 184.015 377.581 189.837 370.282 194.777L364.309 190.543C368.623 183.838 372.936 175.723 377.249 166.196C381.895 156.668 386.208 147.141 390.189 137.614C394.503 128.087 397.821 119.795 400.143 112.738ZM80.1282 8.46858C97.0496 15.5257 110.653 23.2886 120.939 31.7571C131.224 40.2257 138.69 48.6943 143.335 57.1628C148.312 65.2785 150.966 72.865 151.298 79.9221C151.63 86.9792 150.303 92.8014 147.316 97.3885C144.662 101.623 141.012 104.269 136.367 105.328C131.722 106.034 126.579 104.093 120.939 99.5057C119.612 89.9785 116.46 79.9221 111.483 69.3364C106.506 58.3978 100.699 47.9886 94.0635 38.1086C87.4276 28.2286 80.7918 19.76 74.1559 12.7028L80.1282 8.46858ZM191.113 0C207.703 7.76286 220.643 16.4079 229.933 25.935C239.555 35.1093 246.357 44.1071 250.338 52.9286C254.32 61.3971 256.145 69.3364 255.813 76.7464C255.481 84.1564 253.656 90.1549 250.338 94.7421C247.352 98.9764 243.205 101.27 237.896 101.623C232.919 101.976 227.776 99.6821 222.468 94.7421C222.136 84.5092 220.145 73.9235 216.495 62.985C212.846 51.6935 208.201 40.9314 202.56 30.6986C196.92 20.1128 191.113 11.115 185.141 3.70501L191.113 0ZM347.388 1.58787L398.152 20.6421C396.825 23.8179 394.669 26.2879 391.682 28.0521C388.696 29.4636 384.383 29.9928 378.742 29.64C368.789 44.1071 355.849 59.9857 339.923 77.2757C323.996 94.5657 307.904 109.738 291.647 122.794H280.2C288.163 111.856 296.292 99.3292 304.587 85.215C312.881 71.1007 320.679 56.81 327.978 42.3428C335.609 27.5228 342.079 13.9378 347.388 1.58787ZM310.559 186.838H304.587L326.485 165.137L363.314 202.716C361.323 204.481 358.669 205.716 355.351 206.421C352.365 207.127 348.052 207.656 342.411 208.009C333.784 214.713 323.167 222.123 310.559 230.239C297.951 238.002 284.679 245.588 270.744 252.998C257.14 260.056 244.698 266.231 233.417 271.523L227.445 266.231C236.071 259.526 245.693 251.411 256.311 241.883C267.26 232.356 277.545 222.653 287.167 212.773C297.121 202.893 304.918 194.248 310.559 186.838Z" fill="#0F172A"/>
<path d="M84.1097 186.838H322.006V202.187H88.5889L84.1097 186.838ZM0.497691 310.161H383.222L408.106 276.816C408.106 276.816 409.599 278.051 412.585 280.521C415.903 282.991 419.885 286.343 424.53 290.578C429.507 294.812 434.484 299.223 439.461 303.81C444.769 308.397 449.58 312.808 453.894 317.042C452.567 322.335 448.253 324.981 440.954 324.981H4.97691L0.497691 310.161ZM212.016 253.528L262.781 259.35C261.785 266.76 255.979 271.347 245.361 273.111V432.955C245.361 442.483 244.034 450.951 241.38 458.361C239.057 465.771 233.749 471.77 225.454 476.357C217.159 480.944 204.219 484.12 186.634 485.884C185.307 480.238 183.648 475.122 181.657 470.535C179.666 466.3 176.68 462.772 172.699 459.949C167.722 456.773 161.086 453.95 152.791 451.48C144.828 449.363 133.879 447.423 119.943 445.658V437.19C119.943 437.19 122.266 437.366 126.911 437.719C131.556 438.072 137.363 438.601 144.33 439.307C151.298 439.66 158.431 440.189 165.731 440.895C173.362 441.248 180.164 441.6 186.136 441.953C192.109 442.306 196.256 442.483 198.579 442.483C203.887 442.483 207.371 441.6 209.03 439.836C211.021 438.072 212.016 435.073 212.016 430.838V253.528ZM56.239 112.738H419.055V128.616H56.239V112.738ZM48.7737 78.8635L57.2344 78.3342C63.8703 99.8585 66.6905 118.913 65.6951 135.497C64.6998 151.729 61.5477 165.313 56.239 176.252C50.9303 186.838 44.7921 194.777 37.8245 200.07C31.5204 205.363 24.7186 208.362 17.4192 209.068C10.1197 209.421 4.9769 206.598 1.99076 200.599C-0.663587 194.953 -0.663587 189.484 1.99076 184.191C4.64511 178.898 8.46074 174.664 13.4376 171.488C23.7232 164.431 32.5158 152.434 39.8152 135.497C47.4465 118.56 50.4326 99.6821 48.7737 78.8635ZM400.143 112.738H394.669L417.562 88.92L457.378 129.675C455.719 131.792 453.23 133.203 449.912 133.909C446.926 134.615 442.945 135.144 437.968 135.497C432.991 141.496 426.521 148.2 418.558 155.61C410.595 163.02 402.3 170.253 393.673 177.311C385.378 184.015 377.581 189.837 370.282 194.777L364.309 190.543C368.623 183.838 372.936 175.723 377.249 166.196C381.895 156.668 386.208 147.141 390.189 137.614C394.503 128.087 397.821 119.795 400.143 112.738ZM80.1282 8.46858C97.0496 15.5257 110.653 23.2886 120.939 31.7571C131.224 40.2257 138.69 48.6943 143.335 57.1628C148.312 65.2785 150.966 72.865 151.298 79.9221C151.63 86.9792 150.303 92.8014 147.316 97.3885C144.662 101.623 141.012 104.269 136.367 105.328C131.722 106.034 126.579 104.093 120.939 99.5057C119.612 89.9785 116.46 79.9221 111.483 69.3364C106.506 58.3978 100.699 47.9886 94.0635 38.1086C87.4276 28.2286 80.7918 19.76 74.1559 12.7028L80.1282 8.46858ZM191.113 0C207.703 7.76286 220.643 16.4079 229.933 25.935C239.555 35.1093 246.357 44.1071 250.338 52.9286C254.32 61.3971 256.145 69.3364 255.813 76.7464C255.481 84.1564 253.656 90.1549 250.338 94.7421C247.352 98.9764 243.205 101.27 237.896 101.623C232.919 101.976 227.776 99.6821 222.468 94.7421C222.136 84.5092 220.145 73.9235 216.495 62.985C212.846 51.6935 208.201 40.9314 202.56 30.6986C196.92 20.1128 191.113 11.115 185.141 3.70501L191.113 0ZM347.388 1.58787L398.152 20.6421C396.825 23.8179 394.669 26.2879 391.682 28.0521C388.696 29.4636 384.383 29.9928 378.742 29.64C368.789 44.1071 355.849 59.9857 339.923 77.2757C323.996 94.5657 307.904 109.738 291.647 122.794H280.2C288.163 111.856 296.292 99.3292 304.587 85.215C312.881 71.1007 320.679 56.81 327.978 42.3428C335.609 27.5228 342.079 13.9378 347.388 1.58787ZM310.559 186.838H304.587L326.485 165.137L363.314 202.716C361.323 204.481 358.669 205.716 355.351 206.421C352.365 207.127 348.052 207.656 342.411 208.009C333.784 214.713 323.167 222.123 310.559 230.239C297.951 238.002 284.679 245.588 270.744 252.998C257.14 260.056 244.698 266.231 233.417 271.523L227.445 266.231C236.071 259.526 245.693 251.411 256.311 241.883C267.26 232.356 277.545 222.653 287.167 212.773C297.121 202.893 304.918 194.248 310.559 186.838Z" fill="black" fill-opacity="0.2"/>
</g>
</svg>
