<svg width="1336" height="153" viewBox="0 0 1336 153" fill="none" xmlns="http://www.w3.org/2000/svg">
<path d="M101.43 12.65L49.68 67.85L107.64 139.84L114.54 141.45L114.31 145.82H70.15L69.92 140.99L79.81 139.84L53.82 100.28L30.13 72.91V70.61L57.04 39.1L74.52 12.65L64.86 11.5L65.09 6.67H108.1L108.33 11.04L101.43 12.65ZM6.9 139.84L9.66 100.28V51.98L6.9 12.65L0 11.04L0.23 6.67H37.26L37.49 11.04L30.59 12.65L27.83 52.21V100.51L30.59 139.84L37.49 141.45L37.26 145.82H0.23L0 141.45L6.9 139.84Z" fill="url(#paint0_linear_115_80)"/>
<path d="M225.596 111.09L221.226 98.9H168.786L164.186 111.09L157.286 139.84L167.176 140.99L166.946 145.82H128.536L128.306 141.45L135.206 139.84L187.186 12.65L178.446 11.04L178.676 6.67H216.396L216.626 11.04L207.886 12.65L255.956 139.84L262.856 141.45L262.626 145.82H221.686L221.456 140.99L231.346 139.84L225.596 111.09ZM196.156 29.21L174.766 83.49H215.706L196.156 29.21Z" fill="url(#paint1_linear_115_80)"/>
<path d="M299.755 139.84L302.515 100.28V51.98L299.525 12.65L292.855 11.04L293.085 6.67H331.265L331.495 11.5L321.375 12.65H321.145L393.595 112.24V51.98L390.605 12.65L381.405 11.5L381.635 6.67H419.585L419.815 11.04L412.915 12.65L410.155 52.21V94.3L412.915 139.84L419.815 141.45L419.585 145.82H382.325L382.095 140.99L392.445 139.84L319.075 39.33V100.51L321.835 139.84L331.035 140.99L330.805 145.82H293.085L292.855 141.45L299.755 139.84Z" fill="url(#paint2_linear_115_80)"/>
<path d="M520.986 52.21V103.27C520.986 117.223 517.076 128.417 509.256 136.85C501.589 145.13 491.393 149.27 478.666 149.27C471.153 149.27 463.946 147.89 457.046 145.13L453.826 150.19L449.686 148.81L461.646 114.31L465.786 115.46L464.636 125.35C471.076 130.87 477.669 133.63 484.416 133.63C491.316 133.63 496.069 131.33 498.676 126.73C501.436 121.977 502.816 113.16 502.816 100.28V51.98L500.056 12.65L493.156 11.04L493.386 6.67H530.416L530.646 11.04L523.746 12.65L520.986 52.21Z" fill="url(#paint3_linear_115_80)"/>
<path d="M581.154 139.84L583.914 100.28V51.98L581.154 12.65L574.254 11.04L574.484 6.67H611.514L611.744 11.04L604.844 12.65L602.084 52.21V100.51L604.844 139.84L611.744 141.45L611.514 145.82H574.484L574.254 141.45L581.154 139.84Z" fill="url(#paint4_linear_115_80)"/>
<path d="M750.066 100.51L752.826 139.84L762.946 140.99L762.716 145.82H722.466L722.236 141.45L729.136 139.84L731.896 100.28V51.98L729.136 12.65L722.236 11.04L722.466 6.67H811.476L813.316 0H817.686L816.306 33.81H811.936L810.786 24.61L786.176 22.31H752.136L750.066 52.21V68.54H794.226L796.066 61.87H800.436L799.056 93.38H794.686L793.536 84.18H750.066V100.51Z" fill="url(#paint5_linear_115_80)"/>
<path d="M861.413 139.84L864.173 100.28V51.98L861.413 12.65L854.513 11.04L854.743 6.67H894.073L894.303 11.5L885.103 12.65L882.343 52.21V100.51L884.413 130.18H904.653L931.103 127.65L935.013 118.45L938.923 119.37L931.793 152.03L927.653 151.8L927.883 145.82H854.743L854.513 141.45L861.413 139.84Z" fill="url(#paint6_linear_115_80)"/>
<path d="M1031.35 18.4C1016.63 18.4 1005.98 23.1533 999.384 32.66C992.944 42.0133 989.724 56.35 989.724 75.67C989.724 94.8367 993.864 109.403 1002.14 119.37C1010.58 129.183 1022.15 134.09 1036.87 134.09C1051.59 134.09 1062.17 129.49 1068.61 120.29C1075.21 110.937 1078.5 96.5233 1078.5 77.05C1078.5 57.4233 1074.36 42.78 1066.08 33.12C1057.8 23.3067 1046.23 18.4 1031.35 18.4ZM1032.27 149.27C1011.88 149.27 996.011 142.983 984.664 130.41C973.317 117.683 967.644 100.05 967.644 77.51C967.644 54.97 973.854 36.9533 986.274 23.46C998.694 9.96667 1015.18 3.22 1035.72 3.22C1056.27 3.22 1072.22 9.50666 1083.56 22.08C1094.91 34.6533 1100.58 52.21 1100.58 74.75C1100.58 97.29 1094.3 115.383 1081.72 129.03C1069.3 142.523 1052.82 149.27 1032.27 149.27Z" fill="url(#paint7_linear_115_80)"/>
<path d="M1261.98 139.84L1232.31 37.95L1201.49 139.84L1211.61 141.45L1211.38 145.82H1172.74L1172.51 141.45L1179.64 139.84L1135.02 12.65L1128.12 11.04L1128.35 6.67H1170.67L1170.9 11.5L1160.78 12.65L1166.3 43.24L1191.6 122.82L1222.19 12.65L1212.07 11.5L1212.3 6.67H1254.62L1254.85 11.5L1244.73 12.65L1274.86 122.82L1299.93 43.24L1305.22 12.65L1295.1 11.5L1295.33 6.67H1335.58L1335.81 11.04L1328.91 12.65L1282.91 139.84L1290.27 141.45L1290.04 145.82H1252.09L1251.86 141.45L1261.98 139.84Z" fill="url(#paint8_linear_115_80)"/>
<defs>
<linearGradient id="paint0_linear_115_80" x1="0" y1="76.015" x2="1335.81" y2="76.015" gradientUnits="userSpaceOnUse">
<stop stop-color="#F5BF8D"/>
<stop offset="1" stop-color="white" stop-opacity="0.8"/>
</linearGradient>
<linearGradient id="paint1_linear_115_80" x1="0" y1="76.015" x2="1335.81" y2="76.015" gradientUnits="userSpaceOnUse">
<stop stop-color="#F5BF8D"/>
<stop offset="1" stop-color="white" stop-opacity="0.8"/>
</linearGradient>
<linearGradient id="paint2_linear_115_80" x1="0" y1="76.015" x2="1335.81" y2="76.015" gradientUnits="userSpaceOnUse">
<stop stop-color="#F5BF8D"/>
<stop offset="1" stop-color="white" stop-opacity="0.8"/>
</linearGradient>
<linearGradient id="paint3_linear_115_80" x1="0" y1="76.015" x2="1335.81" y2="76.015" gradientUnits="userSpaceOnUse">
<stop stop-color="#F5BF8D"/>
<stop offset="1" stop-color="white" stop-opacity="0.8"/>
</linearGradient>
<linearGradient id="paint4_linear_115_80" x1="0" y1="76.015" x2="1335.81" y2="76.015" gradientUnits="userSpaceOnUse">
<stop stop-color="#F5BF8D"/>
<stop offset="1" stop-color="white" stop-opacity="0.8"/>
</linearGradient>
<linearGradient id="paint5_linear_115_80" x1="0" y1="76.015" x2="1335.81" y2="76.015" gradientUnits="userSpaceOnUse">
<stop stop-color="#F5BF8D"/>
<stop offset="1" stop-color="white" stop-opacity="0.8"/>
</linearGradient>
<linearGradient id="paint6_linear_115_80" x1="0" y1="76.015" x2="1335.81" y2="76.015" gradientUnits="userSpaceOnUse">
<stop stop-color="#F5BF8D"/>
<stop offset="1" stop-color="white" stop-opacity="0.8"/>
</linearGradient>
<linearGradient id="paint7_linear_115_80" x1="0" y1="76.015" x2="1335.81" y2="76.015" gradientUnits="userSpaceOnUse">
<stop stop-color="#F5BF8D"/>
<stop offset="1" stop-color="white" stop-opacity="0.8"/>
</linearGradient>
<linearGradient id="paint8_linear_115_80" x1="0" y1="76.015" x2="1335.81" y2="76.015" gradientUnits="userSpaceOnUse">
<stop stop-color="#F5BF8D"/>
<stop offset="1" stop-color="white" stop-opacity="0.8"/>
</linearGradient>
</defs>
</svg>
